<svg width="79" height="34" viewBox="0 0 79 34" fill="none" xmlns="http://www.w3.org/2000/svg">
<path d="M78.7 22.8145C78.575 22.7207 78.425 22.6738 78.275 22.6504C78.3 22.6738 78.35 22.6738 78.375 22.6973C79.125 23.2363 78.35 24.4785 77.925 25.6035C77.575 26.4941 77.275 27.4082 77.325 28.2988C77.525 32.1895 73.35 34.041 70.85 33.3379C73.3 34.2988 77.85 32.4707 77.65 28.416C77.6 27.5254 77.875 26.6582 78.25 25.7207C78.65 24.5957 79.425 23.3535 78.7 22.8145" fill="black"/>
<path d="M75.375 26.3301C73.825 26.4941 71.55 28.5801 73.15 30.8535C71.975 28.5566 73.9 27.0098 75.125 26.4707C75.25 26.377 75.375 26.3301 75.375 26.3301" fill="black"/>
<path d="M67.525 30.666C67.4 30.6426 67.3 30.6191 67.175 30.5723C67.05 30.5254 66.95 30.502 66.85 30.4551C66.625 30.3613 66.425 30.2441 66.225 30.1035C65.825 29.8457 65.5 29.4941 65.25 29.0723C65 28.6738 64.85 28.2051 64.825 27.7598C64.8 27.5254 64.825 27.3145 64.85 27.0801C64.875 26.9629 64.9 26.8691 64.925 26.752C64.95 26.6348 65 26.541 65.025 26.4238L65.05 26.752C65.05 26.8691 65.075 26.9629 65.1 27.0801C65.125 27.291 65.175 27.502 65.225 27.6895C65.325 28.0879 65.475 28.4629 65.7 28.8145C65.925 29.166 66.175 29.4941 66.5 29.7988C66.65 29.9395 66.825 30.0801 67 30.2207C67.075 30.291 67.175 30.3613 67.275 30.4316L67.525 30.666ZM67.45 31.5098C67.375 31.5566 67.275 31.5801 67.175 31.6035C67.075 31.627 67 31.6504 66.9 31.6504C66.725 31.6738 66.525 31.6973 66.325 31.6738C65.95 31.6504 65.55 31.5566 65.225 31.3926C64.875 31.2285 64.575 30.9707 64.375 30.666C64.275 30.5254 64.175 30.3613 64.1 30.1973C64.075 30.127 64.05 30.0332 64.025 29.9395C64.025 29.8691 64 29.7988 64 29.7051C64.075 29.7754 64.125 29.8457 64.175 29.8926C64.25 29.9629 64.3 30.0332 64.35 30.0801C64.475 30.1973 64.575 30.3145 64.7 30.4082C64.95 30.6191 65.2 30.8066 65.5 30.9473C65.775 31.0879 66.1 31.2051 66.4 31.2988C66.55 31.3457 66.725 31.3691 66.9 31.416C66.975 31.4395 67.075 31.4395 67.15 31.4629C67.275 31.4863 67.35 31.4863 67.45 31.5098M73.1 20.1191C73.225 20.1426 73.325 20.1895 73.45 20.2363C73.575 20.2832 73.675 20.3301 73.775 20.377C74 20.4941 74.2 20.6113 74.4 20.752C74.8 21.0332 75.125 21.4082 75.35 21.8301C75.575 22.252 75.7 22.7207 75.7 23.166C75.7 23.4004 75.675 23.6113 75.625 23.8457C75.6 23.9629 75.575 24.0566 75.525 24.1738C75.475 24.291 75.45 24.3848 75.4 24.4785L75.375 24.1504C75.375 24.0332 75.375 23.9395 75.35 23.8223L75.275 23.1895C75.2 22.791 75.05 22.3926 74.85 22.0176C74.65 21.6426 74.4 21.3145 74.1 21.0098C73.95 20.8457 73.775 20.7051 73.625 20.541C73.55 20.4707 73.45 20.4004 73.35 20.3301L73.1 20.1191M75.275 20.0254C75.375 20.0488 75.45 20.0723 75.525 20.1191C75.6 20.1426 75.7 20.1895 75.775 20.2363C75.925 20.3301 76.075 20.4238 76.225 20.541C76.5 20.7754 76.725 21.0566 76.85 21.3848C77 21.7129 77.05 22.0645 77 22.416C76.975 22.5801 76.925 22.7441 76.875 22.9082C76.85 22.9785 76.8 23.0723 76.775 23.1426C76.725 23.2129 76.7 23.2832 76.625 23.3535V22.8848C76.625 22.7207 76.6 22.5801 76.6 22.4395C76.55 22.1348 76.5 21.8535 76.375 21.5957C76.25 21.3145 76.1 21.0801 75.925 20.8223C75.825 20.7051 75.725 20.5645 75.625 20.4473C75.575 20.377 75.525 20.3301 75.45 20.2598C75.4 20.1426 75.325 20.0723 75.275 20.0254" fill="black"/>
<path d="M66 23.5175C65.5 23.7285 65.325 24.291 65.55 24.7597L68.7 30.9238L70.45 30.1503L67.3 23.9628C67.075 23.4941 66.5 23.2831 66 23.5175M74.275 28.416L76.125 27.5956L72.525 20.5644C72.275 20.0956 71.675 19.8847 71.15 20.1191C70.65 20.3535 70.425 20.916 70.675 21.4081L74.275 28.416Z" fill="#809A6F"/>
<path d="M71.175 20.0957C71.125 20.1192 71.075 20.1426 71.025 20.1895C71.5 20.0723 72 20.2832 72.225 20.7051L75.825 27.7364L76.15 27.5957L72.55 20.5645C72.3 20.0723 71.7 19.8614 71.175 20.0957" fill="#809A6F"/>
<path d="M70.45 30.1269L72.375 29.2597L68.7 22.0878C68.45 21.5957 67.8 21.3613 67.275 21.5957C66.75 21.83 66.525 22.4394 66.775 22.9316L70.45 30.1269Z" fill="#809A6F"/>
<path d="M67.275 21.6192C67.225 21.6426 67.175 21.6661 67.125 21.7129C67.6 21.5957 68.15 21.8067 68.375 22.252L70.65 26.7286L71.2 27.0332L68.7 22.1114C68.45 21.5957 67.825 21.3848 67.275 21.6192" fill="black"/>
<path d="M72.075 28.6973L74 27.8301L70.325 20.6582C70.075 20.166 69.425 19.9316 68.9 20.1894C68.375 20.4238 68.15 21.0332 68.4 21.5254L72.075 28.6973Z" fill="#809A6F"/>
<path d="M68.9 20.1661C68.85 20.1895 68.8 20.2364 68.75 20.2598C69.225 20.1426 69.775 20.3536 70 20.7989L72.575 25.8614L73.125 26.1661L70.325 20.6582C70.075 20.1426 69.425 19.9317 68.9 20.1661M66 23.5176C65.95 23.5411 65.9 23.5645 65.85 23.6114C66.3 23.4942 66.775 23.7051 66.975 24.127L68.85 27.8067L69.4 28.1114L67.3 23.9864C67.075 23.4942 66.5 23.2832 66 23.5176Z" fill="black"/>
<path d="M78.7 22.8145C78.025 22.3223 76.925 22.8614 76.375 24.5489C76 25.7208 75.95 26.0723 75.15 26.4239L74.7 25.5567C74.7 25.5567 67.6 28.7676 67.875 29.2833C67.875 29.2833 68.725 31.7676 70.175 32.9161C72.325 34.6504 77.35 32.7989 77.575 28.3223C77.7 25.7208 79.425 23.3536 78.7 22.8145Z" fill="#809A6F"/>
<path d="M11.36 16.2C11.1067 16.2 10.9133 16.16 10.78 16.08C10.66 16.0133 10.58 15.9133 10.54 15.78C10.5 15.6333 10.48 15.4667 10.48 15.28V3.14C10.48 2.95333 10.5 2.79333 10.54 2.66C10.58 2.52667 10.6667 2.42667 10.8 2.36C10.9333 2.28 11.1267 2.24 11.38 2.24C11.6467 2.24 11.84 2.28 11.96 2.36C12.0933 2.42667 12.18 2.52667 12.22 2.66C12.26 2.79333 12.28 2.96 12.28 3.16V15.3C12.28 15.4867 12.2533 15.6467 12.2 15.78C12.16 15.9133 12.0733 16.0133 11.94 16.08C11.82 16.16 11.6267 16.2 11.36 16.2ZM2.36 16.2C2.09333 16.2 1.89333 16.16 1.76 16.08C1.64 16.0133 1.56 15.9133 1.52 15.78C1.48 15.6333 1.46 15.4667 1.46 15.28V3.14C1.46 2.95333 1.48 2.79333 1.52 2.66C1.57333 2.52667 1.66 2.42667 1.78 2.36C1.91333 2.28 2.11333 2.24 2.38 2.24C2.63333 2.24 2.82 2.28 2.94 2.36C3.07333 2.42667 3.16 2.52667 3.2 2.66C3.24 2.79333 3.26 2.96 3.26 3.16V15.3C3.26 15.4867 3.24 15.6467 3.2 15.78C3.16 15.9133 3.07333 16.0133 2.94 16.08C2.80667 16.16 2.61333 16.2 2.36 16.2ZM2.44 9.88V8.2H10.8L10.78 9.88H2.44ZM16.1505 16.2C15.8838 16.2 15.6838 16.16 15.5505 16.08C15.4305 16.0133 15.3505 15.9133 15.3105 15.78C15.2705 15.6333 15.2505 15.4667 15.2505 15.28V3.14C15.2505 2.79333 15.3171 2.56 15.4505 2.44C15.5971 2.30667 15.8505 2.24 16.2105 2.24H24.2505C24.4371 2.24 24.5971 2.26 24.7305 2.3C24.8638 2.34 24.9638 2.42667 25.0305 2.56C25.0971 2.69333 25.1305 2.89333 25.1305 3.16C25.1305 3.42667 25.0905 3.62667 25.0105 3.76C24.9438 3.88 24.8438 3.96 24.7105 4C24.5771 4.04 24.4171 4.06 24.2305 4.06H17.0505V8.2H22.0505C22.2371 8.2 22.3905 8.22 22.5105 8.26C22.6438 8.3 22.7438 8.38 22.8105 8.5C22.8771 8.62 22.9105 8.80667 22.9105 9.06C22.9105 9.3 22.8771 9.48 22.8105 9.6C22.7438 9.72 22.6438 9.8 22.5105 9.84C22.3771 9.86667 22.2105 9.88 22.0105 9.88H17.0505V14.4H24.2505C24.4371 14.4 24.5971 14.42 24.7305 14.46C24.8638 14.5 24.9638 14.5867 25.0305 14.72C25.0971 14.84 25.1305 15.0333 25.1305 15.3C25.1305 15.5667 25.0905 15.7667 25.0105 15.9C24.9438 16.02 24.8438 16.1 24.7105 16.14C24.5771 16.18 24.4171 16.2 24.2305 16.2H16.1505ZM28.4314 16.2C28.1647 16.2 27.9647 16.16 27.8314 16.08C27.6981 16.0133 27.6047 15.9133 27.5514 15.78C27.5114 15.6467 27.4914 15.4867 27.4914 15.3V3.16C27.4914 2.96 27.5114 2.79333 27.5514 2.66C27.5914 2.52667 27.6714 2.42667 27.7914 2.36C27.9247 2.28 28.1247 2.24 28.3914 2.24C28.6581 2.24 28.8514 2.28 28.9714 2.36C29.1047 2.42667 29.1914 2.52667 29.2314 2.66C29.2714 2.79333 29.2914 2.95333 29.2914 3.14V14.52H35.9914C36.1647 14.52 36.3114 14.54 36.4314 14.58C36.5514 14.62 36.6447 14.7 36.7114 14.82C36.7914 14.94 36.8314 15.12 36.8314 15.36C36.8314 15.5867 36.7981 15.7667 36.7314 15.9C36.6647 16.02 36.5714 16.1 36.4514 16.14C36.3314 16.18 36.1847 16.2 36.0114 16.2H28.4314ZM39.5838 16.2C39.3171 16.2 39.1171 16.16 38.9838 16.08C38.8504 16.0133 38.7571 15.9133 38.7038 15.78C38.6638 15.6467 38.6438 15.4867 38.6438 15.3V3.16C38.6438 2.96 38.6638 2.79333 38.7038 2.66C38.7438 2.52667 38.8238 2.42667 38.9438 2.36C39.0771 2.28 39.2771 2.24 39.5438 2.24C39.8104 2.24 40.0038 2.28 40.1238 2.36C40.2571 2.42667 40.3438 2.52667 40.3838 2.66C40.4238 2.79333 40.4438 2.95333 40.4438 3.14V14.52H47.1438C47.3171 14.52 47.4638 14.54 47.5838 14.58C47.7038 14.62 47.7971 14.7 47.8638 14.82C47.9438 14.94 47.9838 15.12 47.9838 15.36C47.9838 15.5867 47.9504 15.7667 47.8838 15.9C47.8171 16.02 47.7238 16.1 47.6038 16.14C47.4838 16.18 47.3371 16.2 47.1638 16.2H39.5838ZM55.9161 16.34C54.9694 16.34 54.0761 16.16 53.2361 15.8C52.4094 15.44 51.6761 14.94 51.0361 14.3C50.4094 13.6467 49.9161 12.9 49.5561 12.06C49.1961 11.22 49.0161 10.3133 49.0161 9.34C49.0161 8.35333 49.1894 7.42667 49.5361 6.56C49.8828 5.68 50.3628 4.91333 50.9761 4.26C51.6028 3.60667 52.3228 3.09333 53.1361 2.72C53.9494 2.34667 54.8161 2.16 55.7361 2.16C56.6961 2.16 57.5894 2.34 58.4161 2.7C59.2561 3.06 59.9828 3.56667 60.5961 4.22C61.2228 4.86 61.7161 5.61333 62.0761 6.48C62.4361 7.34667 62.6161 8.27333 62.6161 9.26C62.6161 10.2333 62.4361 11.1467 62.0761 12C61.7294 12.84 61.2494 13.5933 60.6361 14.26C60.0228 14.9133 59.3094 15.4267 58.4961 15.8C57.6961 16.16 56.8361 16.34 55.9161 16.34ZM55.7961 14.52C56.4894 14.52 57.1361 14.3867 57.7361 14.12C58.3494 13.8533 58.8828 13.48 59.3361 13C59.7894 12.5067 60.1428 11.9467 60.3961 11.32C60.6628 10.68 60.7961 9.98667 60.7961 9.24C60.7961 8.52 60.6628 7.84667 60.3961 7.22C60.1428 6.58 59.7828 6.02 59.3161 5.54C58.8628 5.04667 58.3361 4.66 57.7361 4.38C57.1361 4.1 56.4961 3.96 55.8161 3.96C55.1361 3.96 54.4961 4.1 53.8961 4.38C53.2961 4.66 52.7628 5.04 52.2961 5.52C51.8428 6 51.4828 6.56 51.2161 7.2C50.9628 7.84 50.8361 8.52667 50.8361 9.26C50.8361 9.98 50.9628 10.66 51.2161 11.3C51.4828 11.94 51.8428 12.5 52.2961 12.98C52.7628 13.46 53.2894 13.84 53.8761 14.12C54.4761 14.3867 55.1161 14.52 55.7961 14.52ZM2.28 33.18C1.8 33.18 1.45333 33.1067 1.24 32.96C1.02667 32.8 0.893333 32.6 0.84 32.36C0.8 32.1067 0.78 31.8467 0.78 31.58V20.74C0.78 20.4733 0.8 20.2267 0.84 20C0.893333 19.76 1.02667 19.5667 1.24 19.42C1.45333 19.26 1.80667 19.18 2.3 19.18H7.28C8.06667 19.18 8.76667 19.3667 9.38 19.74C9.99333 20.1133 10.48 20.6133 10.84 21.24C11.2 21.8667 11.3733 22.5467 11.36 23.28C11.3733 23.5733 11.3467 23.86 11.28 24.14C11.2133 24.42 11.1133 24.6933 10.98 24.96C10.86 25.2133 10.7067 25.4467 10.52 25.66C10.8 25.9267 11.0333 26.2333 11.22 26.58C11.4067 26.9133 11.5467 27.2667 11.64 27.64C11.7467 28.0133 11.8 28.3933 11.8 28.78C11.7867 29.3933 11.6667 29.9733 11.44 30.52C11.2267 31.0533 10.92 31.52 10.52 31.92C10.12 32.3067 9.66 32.6133 9.14 32.84C8.62 33.0667 8.06667 33.18 7.48 33.18H2.28ZM3.82 30.16H7.28C7.50667 30.16 7.73333 30.12 7.96 30.04C8.2 29.9467 8.39333 29.7867 8.54 29.56C8.7 29.32 8.78 28.9867 8.78 28.56C8.78 28.28 8.74667 28.0467 8.68 27.86C8.61333 27.6733 8.52 27.5333 8.4 27.44C8.28 27.3333 8.14667 27.26 8 27.22C7.85333 27.18 7.7 27.1533 7.54 27.14C7.38 27.1267 7.22667 27.12 7.08 27.12H6.5C6.04667 27.12 5.72667 27.0267 5.54 26.84C5.35333 26.64 5.26 26.3 5.26 25.82C5.26 25.3533 5.36 25.0267 5.56 24.84C5.77333 24.6533 6.10667 24.56 6.56 24.56H7.14C7.27333 24.56 7.41333 24.5533 7.56 24.54C7.70667 24.5267 7.83333 24.4867 7.94 24.42C8.06 24.3533 8.15333 24.2467 8.22 24.1C8.3 23.94 8.34 23.7267 8.34 23.46C8.34 23.0067 8.22667 22.6867 8 22.5C7.77333 22.3 7.37333 22.2 6.8 22.2H3.82V30.16ZM18.8228 33.36C17.8495 33.36 16.9895 33.1733 16.2428 32.8C15.5095 32.4133 14.8828 31.9067 14.3628 31.28C13.8561 30.64 13.4761 29.9267 13.2228 29.14C12.9695 28.34 12.8428 27.5267 12.8428 26.7V20.72C12.8428 20.4533 12.8628 20.2067 12.9028 19.98C12.9561 19.74 13.0895 19.5467 13.3028 19.4C13.5161 19.2533 13.8695 19.18 14.3628 19.18C14.8695 19.18 15.2295 19.2533 15.4428 19.4C15.6561 19.5467 15.7828 19.74 15.8228 19.98C15.8761 20.2067 15.9028 20.46 15.9028 20.74V26.7C15.9028 27.2867 15.9961 27.8533 16.1828 28.4C16.3828 28.9467 16.7028 29.4 17.1428 29.76C17.5828 30.12 18.1628 30.3 18.8828 30.3C19.4961 30.3 20.0228 30.1533 20.4628 29.86C20.9028 29.5533 21.2428 29.1333 21.4828 28.6C21.7228 28.0533 21.8428 27.4133 21.8428 26.68V20.6C21.8428 20.36 21.8695 20.1333 21.9228 19.92C21.9761 19.7067 22.1095 19.5333 22.3228 19.4C22.5361 19.2533 22.8895 19.18 23.3828 19.18C23.8761 19.18 24.2228 19.26 24.4228 19.42C24.6361 19.5667 24.7628 19.7533 24.8028 19.98C24.8561 20.2067 24.8828 20.46 24.8828 20.74V26.74C24.8828 27.58 24.7495 28.3933 24.4828 29.18C24.2295 29.9667 23.8428 30.6733 23.3228 31.3C22.8161 31.9267 22.1828 32.4267 21.4228 32.8C20.6761 33.1733 19.8095 33.36 18.8228 33.36ZM27.6723 33.18C27.2057 33.18 26.8657 33.1067 26.6523 32.96C26.4523 32.8133 26.319 32.6267 26.2523 32.4C26.1857 32.16 26.1523 31.9067 26.1523 31.64V20.7C26.1523 20.4467 26.179 20.2067 26.2323 19.98C26.2857 19.74 26.419 19.5467 26.6323 19.4C26.8457 19.2533 27.199 19.1867 27.6923 19.2H31.2923C32.2523 19.2 33.1457 19.3733 33.9723 19.72C34.799 20.0667 35.5257 20.5533 36.1523 21.18C36.779 21.8067 37.2657 22.54 37.6123 23.38C37.959 24.22 38.1323 25.1333 38.1323 26.12C38.1323 27.12 37.959 28.0533 37.6123 28.92C37.2657 29.7733 36.779 30.52 36.1523 31.16C35.5257 31.7867 34.7923 32.28 33.9523 32.64C33.1257 33 32.219 33.18 31.2323 33.18H27.6723ZM29.1923 30.12H31.2923C32.0123 30.12 32.659 29.9533 33.2323 29.62C33.8057 29.2733 34.259 28.8067 34.5923 28.22C34.9257 27.6333 35.0923 26.96 35.0923 26.2C35.0923 25.44 34.9257 24.76 34.5923 24.16C34.259 23.56 33.8057 23.0933 33.2323 22.76C32.659 22.4133 32.0057 22.24 31.2723 22.24H29.1923V30.12ZM40.6122 33.18C40.1455 33.18 39.8055 33.1067 39.5922 32.96C39.3922 32.8133 39.2589 32.6267 39.1922 32.4C39.1255 32.16 39.0922 31.9067 39.0922 31.64V20.7C39.0922 20.4467 39.1189 20.2067 39.1722 19.98C39.2255 19.74 39.3589 19.5467 39.5722 19.4C39.7855 19.2533 40.1389 19.1867 40.6322 19.2H44.2322C45.1922 19.2 46.0855 19.3733 46.9122 19.72C47.7389 20.0667 48.4655 20.5533 49.0922 21.18C49.7189 21.8067 50.2055 22.54 50.5522 23.38C50.8989 24.22 51.0722 25.1333 51.0722 26.12C51.0722 27.12 50.8989 28.0533 50.5522 28.92C50.2055 29.7733 49.7189 30.52 49.0922 31.16C48.4655 31.7867 47.7322 32.28 46.8922 32.64C46.0655 33 45.1589 33.18 44.1722 33.18H40.6122ZM42.1322 30.12H44.2322C44.9522 30.12 45.5989 29.9533 46.1722 29.62C46.7455 29.2733 47.1989 28.8067 47.5322 28.22C47.8655 27.6333 48.0322 26.96 48.0322 26.2C48.0322 25.44 47.8655 24.76 47.5322 24.16C47.1989 23.56 46.7455 23.0933 46.1722 22.76C45.5989 22.4133 44.9455 22.24 44.2122 22.24H42.1322V30.12ZM61.9359 19.42C62.4159 19.7533 62.6759 20.0733 62.7159 20.38C62.7693 20.6733 62.6559 21.0333 62.3759 21.46L58.1559 27.8V31.7C58.1559 31.9533 58.1293 32.2 58.0759 32.44C58.0226 32.6667 57.8893 32.8533 57.6759 33C57.4759 33.1467 57.1226 33.22 56.6159 33.22C56.1226 33.22 55.7693 33.1467 55.5559 33C55.3426 32.8533 55.2093 32.66 55.1559 32.42C55.1159 32.18 55.0959 31.9267 55.0959 31.66V27.8L50.8559 21.46C50.5626 21.0333 50.4493 20.6667 50.5159 20.36C50.5826 20.0533 50.8493 19.74 51.3159 19.42C51.6626 19.1933 51.9559 19.06 52.1959 19.02C52.4359 18.98 52.6559 19.0267 52.8559 19.16C53.0559 19.2933 53.2493 19.5133 53.4359 19.82L56.5759 24.82L59.7959 19.82C60.0093 19.5 60.2093 19.28 60.3959 19.16C60.5959 19.0267 60.8159 18.98 61.0559 19.02C61.2959 19.06 61.5893 19.1933 61.9359 19.42Z" fill="#1D1D1D"/>
</svg>
